0
SECTION
2
HEADER
0
ENDSEC
0
SECTION
2
TABLES
0
ENDSEC
0
SECTION
2
BLOCKS
0
ENDSEC
0
SECTION
2
ENTITIES
0
CIRCLE
8
0
10
0.000000
20
0.000000
30
0.0
40
200.000000
0
CIRCLE
8
0
10
187.000000
20
0.000000
30
0.0
40
1.400000
0
CIRCLE
8
0
10
93.500000
20
161.946751
30
0.0
40
1.400000
0
CIRCLE
8
0
10
-93.500000
20
161.946751
30
0.0
40
1.400000
0
CIRCLE
8
0
10
-187.000000
20
0.000000
30
0.0
40
1.400000
0
CIRCLE
8
0
10
-93.500000
20
-161.946751
30
0.0
40
1.400000
0
CIRCLE
8
0
10
93.500000
20
-161.946751
30
0.0
40
1.400000
0
CIRCLE
8
0
10
-39.500000
20
-69.500000
30
0.0
40
1.600000
0
CIRCLE
8
0
10
-39.500000
20
-169.500000
30
0.0
40
1.600000
0
CIRCLE
8
0
10
39.500000
20
-69.500000
30
0.0
40
1.600000
0
CIRCLE
8
0
10
39.500000
20
-169.500000
30
0.0
40
1.600000
0
CIRCLE
8
0
10
-155.500000
20
-20.000000
30
0.0
40
1.600000
0
CIRCLE
8
0
10
-155.500000
20
20.000000
30
0.0
40
1.600000
0
CIRCLE
8
0
10
-100.500000
20
-20.000000
30
0.0
40
1.600000
0
CIRCLE
8
0
10
-100.500000
20
20.000000
30
0.0
40
1.600000
0
CIRCLE
8
0
10
-82.500000
20
107.500000
30
0.0
40
1.600000
0
CIRCLE
8
0
10
-82.500000
20
132.500000
30
0.0
40
1.600000
0
CIRCLE
8
0
10
82.500000
20
107.500000
30
0.0
40
1.600000
0
CIRCLE
8
0
10
82.500000
20
132.500000
30
0.0
40
1.600000
0
LINE
8
1
10
-148.000000
20
-26.500000
30
0.0
11
-108.000000
21
-26.500000
31
0.0
0
LINE
8
1
10
-108.000000
20
-26.500000
30
0.0
11
-108.000000
21
26.500000
31
0.0
0
LINE
8
1
10
-108.000000
20
26.500000
30
0.0
11
-148.000000
21
26.500000
31
0.0
0
LINE
8
1
10
-148.000000
20
26.500000
30
0.0
11
-148.000000
21
-26.500000
31
0.0
0
LINE
8
1
10
-61.500000
20
-158.500000
30
0.0
11
61.500000
21
-158.500000
31
0.0
0
LINE
8
1
10
61.500000
20
-158.500000
30
0.0
11
61.500000
21
-80.500000
31
0.0
0
LINE
8
1
10
61.500000
20
-80.500000
30
0.0
11
-61.500000
21
-80.500000
31
0.0
0
LINE
8
1
10
-61.500000
20
-80.500000
30
0.0
11
-61.500000
21
-158.500000
31
0.0
0
LINE
8
1
10
-89.250000
20
90.300000
30
0.0
11
89.250000
21
90.300000
31
0.0
0
LINE
8
1
10
89.250000
20
90.300000
30
0.0
11
89.250000
21
149.700000
31
0.0
0
LINE
8
1
10
89.250000
20
149.700000
30
0.0
11
-89.250000
21
149.700000
31
0.0
0
LINE
8
1
10
-89.250000
20
149.700000
30
0.0
11
-89.250000
21
90.300000
31
0.0
0
LINE
8
2
10
-63.500000
20
-93.000000
30
0.0
11
-96.000000
21
-93.000000
31
0.0
0
ARC
8
2
10
-96.000000
20
-61.000000
30
0.0
40
32.000000
50
180.000000
51
270.000000
0
LINE
8
2
10
-128.000000
20
-61.000000
30
0.0
11
-128.000000
21
-28.500000
31
0.0
0
ENDSEC
0
EOF
